<?xml version="1.0" encoding="utf-8"?>
<!-- Generator: Adobe Illustrator 19.2.1, SVG Export Plug-In . SVG Version: 6.00 Build 0)  -->
<svg version="1.1" id="layer" xmlns="http://www.w3.org/2000/svg" xmlns:xlink="http://www.w3.org/1999/xlink" x="0px" y="0px"
	 viewBox="0 0 652 652" style="enable-background:new 0 0 652 652;" xml:space="preserve">
<style type="text/css">
	.st0{fill:#EE6F61;}
	.st1{fill:#FFFFFF;}
</style>
<g id="Layer_2">
	<g id="Coral">
		<g id="Coral-Full">
			<path class="st0" d="M320.8,571.8c138.1,0,250-111.9,250-250s-111.9-250-250-250s-250,111.9-250,250S182.7,571.8,320.8,571.8
				L320.8,571.8"/>
			<path class="st1" d="M504.6,382.3c-0.6,0.7-1.2,1.3-1.8,1.9c-0.2,0.3-0.5,0.5-0.8,0.7c-3.4,3-7.8,4.7-12.4,4.6
				c-3.8,0.2-7.7-0.6-11.2-2.3c-4.4-2.4-7.2-6.9-7.5-11.9c-0.2-2-0.3-4-0.3-6v-73.6h22.2c9.8-0.8,8.8-8.5,8.5-12h-31.2v-55.8
				c-11.4,9.3-25.5,14.7-40.2,15.4l-0.6,40.3h-22.1c-6.9-4.9-15.7-6.1-23.7-3.3c-7.4,2.8-15.9,5-32.5,30.6v-32.1l-53.9,11v3.5
				c11.1,4.6,13.9,8.6,13.9,18v62.9c0,11,0,19.9-4.9,24.5c-5.3-4.7-9.4-10.5-11.9-17.2c0,0-4.6-8.7-71.7-162.7H221l-26.5,68.7
				l-38,87.9c-6,14.7-11.4,20.8-19.4,26.4h-1.6v3.6h55.8v-3.6c-21.6,0.7-23.2-17.1-19.4-28.2c1.8-5.3,5.8-15.7,7.3-19.2l37.2-0.8
				h13.6l9.3,22.9c2.2,4.8,3.5,9.9,3.9,15.2c0,7.7-6.8,8.3-13.9,10.8v2.8h132.8v-3.2c-9.7-2.7-11-13.5-11-28.3V321
				c10.5-16.4,20.2-20.3,20.2-17.1c0.2,5.8,3,11.3,7.6,14.8c9.3,8.1,23.5,7.1,31.6-2.2c0.1-0.1,0.1-0.1,0.2-0.2
				c4.9-5.7,6.6-13.4,4.6-20.7h13.9v74.4c0,4.3,0.5,8.6,1.7,12.7c3,10.8,11.4,19.3,22.2,22.3c5.7,1.7,11.7,2.6,17.6,2.6
				c17.7,0,31.6-10.7,35.1-23.2c0-0.4,0.3-0.7,0.3-1L504.6,382.3z M205.6,285.9l18.9,55.8h-40.4L205.6,285.9z"/>
			<path class="st1" d="M280,425.7c5.2-0.2,10.2,1.7,13.9,5.3c0.4,0.4,0.5,1,0.1,1.4c0,0.1-0.1,0.1-0.1,0.1l-3.4,3.6
				c-0.3,0.4-0.9,0.5-1.2,0.2c-0.1,0-0.1-0.1-0.2-0.2c-2.4-2.1-5.5-3.3-8.7-3.3c-7.3,0-13.2,5.9-13.2,13.2c0,7.3,5.9,13.2,13.2,13.2
				c3.2,0,6.3-1.2,8.7-3.3c0.4-0.3,1-0.3,1.4,0l3.5,3.6c0.4,0.4,0.4,1.1,0,1.5c-3.7,3.6-8.7,5.6-13.9,5.5
				c-11.3,0.5-20.8-8.2-21.4-19.4c-0.5-11.3,8.2-20.8,19.4-21.4C278.7,425.7,279.4,425.7,280,425.7L280,425.7z"/>
			<path class="st1" d="M324.8,425.7c11.3,0,20.4,9.1,20.5,20.4c0,11.3-9.1,20.4-20.4,20.5c-11.3,0-20.4-9.1-20.5-20.4
				C304.4,434.9,313.4,425.8,324.8,425.7C324.7,425.7,324.7,425.7,324.8,425.7z M324.8,459.2c7.2,0,13.1-5.8,13.1-13
				c0-7.2-5.8-13.1-13-13.1c-7.2,0-13.1,5.8-13.1,13c0,0,0,0.1,0,0.1C311.8,453.3,317.6,459.1,324.8,459.2z"/>
			<path class="st1" d="M361,426.6c0.1-0.5,0.5-0.8,1-0.8h0.9c0.4,0,0.8,0.2,0.9,0.6l12.5,26.7l0,0l12.5-26.7c0.2-0.4,0.6-0.6,1-0.6
				h0.9c0.5-0.1,1,0.3,1,0.8c0,0,0,0,0,0l6.7,38.1c0.2,0.5-0.1,1.1-0.6,1.2c-0.1,0.1-0.3,0.1-0.4,0.1h-5c-0.4-0.1-0.7-0.4-0.8-0.8
				l-3.6-21.4l0,0l-9.9,22.3c-0.2,0.4-0.6,0.6-1,0.6h-1c-0.4,0-0.8-0.2-1-0.6l-10.2-22.3l0,0l-3.3,21.5c-0.1,0.5-0.5,0.8-1,0.8h-5.1
				c-0.6,0.1-1.1-0.4-1.2-1c0-0.1,0-0.3,0-0.4L361,426.6z"/>
			<path class="st1" d="M248.8,454.7c3.3,0,5.9,2.7,5.9,5.9c0,3.3-2.6,5.9-5.9,5.9c-3.3,0-5.9-2.6-5.9-5.9
				C242.8,457.4,245.5,454.7,248.8,454.7C248.8,454.7,248.8,454.7,248.8,454.7z"/>
		</g>
	</g>
</g>
</svg>
